<svg version="1.2" xmlns="http://www.w3.org/2000/svg" viewBox="0 0 5124 1266" width="5124" height="1266"><style>.a{fill:#9297f4}.b{fill:#343ced}</style><path class="a" d="m3616.6 888h-159.7v-519.9h159.7q137.4 0 202 69.8 65.4 69.8 65.4 191.6 0 119.6-65.4 189.4-64.6 69.1-202 69.1zm-97.3-467.9v415.9h95.8q75.8 0 120.3-24.5 45.3-25.3 64.6-71.3 19.3-46.8 19.3-110.7 0-65.3-19.3-112.1-19.3-46.8-64.6-72.1-44.5-25.2-120.3-25.2zm618.7 476.8q-52 0-93.6-23.8-41.6-23.7-66.1-66.8-23.8-43.8-23.8-102.5 0-58.7 24.5-101.7 24.5-43.9 66.1-67.6 42.4-23.8 94.4-23.8 51.9 0 93.5 23.8 41.6 23.7 65.4 67.6 24.5 43 24.5 101.7 0 58.7-24.5 102.5-24.5 43.1-66.8 66.8-41.6 23.8-93.6 23.8zm0-53.5q31.9 0 59.4-15.6 27.5-15.6 44.5-46.7 17.1-31.2 17.1-77.3 0-46-17.1-77.2-16.3-31.2-43.8-46.8-27.5-15.6-58.6-15.6-32 0-59.5 15.6-27.4 15.6-44.5 46.8-17.1 31.2-17.1 77.2 0 46.1 17.1 77.3 17.1 31.1 43.8 46.7 27.5 15.6 58.7 15.6zm441.1 53.5q-52.7 0-95-23.8-41.6-24.5-66.1-67.5-23.8-43.9-23.8-101.8 0-57.9 23.8-101 24.5-43.8 66.1-67.6 42.3-24.5 95-24.5 65.4 0 110 34.2 45.3 34.1 57.1 91.3h-63.8q-7.5-34.1-36.4-52.7-29-19.3-67.6-19.3-31.2 0-58.7 15.6-27.5 15.6-44.5 46.8-17.1 31.2-17.1 77.2 0 46.1 17.1 77.3 17 31.1 44.5 47.5 27.5 15.6 58.7 15.6 38.6 0 67.6-18.6 28.9-19.3 36.4-54.2h63.8q-11.1 55.7-56.4 90.6-45.3 34.9-110.7 34.9zm395.2 0q-66.1 0-110-33.4-43.8-33.4-51.2-90.6h63.9q5.9 28.9 30.4 50.5 25.3 20.8 67.6 20.8 39.4 0 57.9-16.4 18.6-17 18.6-40.1 0-33.4-24.5-44.5-23.8-11.2-67.6-20.1-29.7-5.9-59.4-17.1-29.7-11.1-49.8-31.2-20-20.8-20-54.2 0-48.3 35.6-78.7 36.4-31.2 98.1-31.2 58.6 0 95.8 29.7 37.8 29 43.8 83.2h-61.7q-3.7-28.2-24.5-43.8-20-16.4-54.2-16.4-33.4 0-52 14.1-17.8 14.2-17.8 37.2 0 22.3 23 34.9 23.8 12.6 63.9 21.5 34.2 7.5 64.6 18.6 31.2 10.4 50.5 31.9 20.1 20.8 20.1 60.9 0.7 49.8-37.9 82.5-37.9 31.9-103.2 31.9z"/><filter id="f0"><feFlood flood-color="#ffffff" flood-opacity="1" /><feBlend mode="normal" in2="SourceGraphic"/><feComposite in2="SourceAlpha" operator="in" /></filter><g filter="url(#f0)"><path class="b" d="m2429.8 651.6c-7-175.2-154.6-316.3-335.8-316.3-185.4 0-336.6 147.9-336.6 329.4 0 181.4 151.2 329.3 336.6 329.3 71.3 0 137.8-21.9 192.4-59.6v53.4h144.8l-1.4-334.8zm-335.8 201.3c-105.7 0-191.7-84.2-191.7-187.6 0-103.4 86-187.6 191.7-187.6 105.6 0 191.7 84.2 191.7 187.6 0 103.4-86.1 187.6-191.7 187.6z"/><path class="b" d="m1503.3 798.2c-17.3 16.4-37.3 30.1-60 39.7-22.1 9.6-46.9 14.4-73 14.4q-20.7 0-39.3-4.2c-12.4-2.7-24.8-6.8-36.5-11.6q-17.6-8.2-33.1-18.5c-10.4-7.5-20-15.7-28.3-24.6l326-125.3 138.5-53.4c-7.6-48-24.8-93.1-51-132.2-59.3-89-161.3-147.2-276.3-147.2-182.6 0-331.5 147.9-331.5 329.4 0 17.1 1.4 33.5 4.1 49.9 7.6 48 24.9 93.2 51 132.2 15.2 21.9 32.4 42.4 52.4 60.2 20 17.8 41.4 33.6 65.5 46.6 23.4 13 48.9 23.3 75.8 30.1 26.8 6.9 54.4 10.3 83.3 10.3 45.5 0 89.6-8.9 128.9-26 40-16.5 75.1-41.1 105.4-70.6 30.4-30.1 54.5-65 71-104.7 6.9-16.4 12.4-34.2 16.5-52h-150.2q-13.4 32.8-39.2 57.5zm-132.4-321.8c53.8 0 102.7 23.2 137.2 58.9l-326 125.2c2.1-101.3 86.2-184.1 188.8-184.1z"/><path class="b" d="m2915.1 989h144.2l0.7-385.5c0-165.6-106.9-273.1-271.8-273.1-162.1 0-275.2 112.4-275.2 273.1l-0.7 384.8h144.2l0.7-389c0-74.5 55.1-128.9 131-128.9 118 0 127.6 98.6 127.6 128.9z"/><path class="b" d="m677.5 329.4l-112.5-87.6-91 120.7c-138-65.5-307.6-28.9-404.2 95.9-112.5 144.8-86.2 353.1 58.6 465.5 55.2 42.8 119.3 65.5 184.2 69 105.5 6.2 212.4-37.9 281.4-127.6 97.3-124.8 90.4-298.6-6.9-415.9zm-196.6 448.3c-64.1 82.1-182.8 97.3-265.5 33.1-82.1-64.1-97.3-183.4-33.1-265.5 31-40 75.8-65.5 125.5-71.7 11.7-1.4 23.4-2.1 35.2-1.4 37.9 2.1 74.5 15.9 104.8 39.3 82.1 64.8 97.3 184.1 33.1 266.2z"/><path class="b" d="m684.4 928.3c-18.6 24.1-39.3 45.5-62.1 65.5-22.1 18.6-46.2 35.9-71.7 50.4-24.9 13.8-51.8 25.5-78.7 34.5-26.9 8.9-55.2 15.1-83.4 18.6-28.3 3.4-56.6 4.8-85.6 2.7-28.9-2-57.2-6.9-84.8-13.8l-6.2 22.8-28.3 115.2c35.9 9.6 72.4 15.1 109.7 17.9 1.3 0 3.4 0 4.8 0 35.9 2.1 72.4 0.7 107.6-3.4 37.3-4.9 74.5-13.2 110.4-24.9 35.8-11.7 71-26.9 104.1-45.5 33.8-18.6 65.6-41.4 95.2-66.2 30.4-25.5 58-54.5 82.1-86.2 3.4-4.1 6.2-9 9.7-13.8l-114.5-84.8c-3.5 3.4-5.6 7.6-8.3 11z"/><path class="b" d="m916.1 725.5l-0.6-725.5h-144.2l0.7 722.1c0 152.4 102.1 260.7 251.1 271.7v-142.1c-62.8-10.3-107-60-107-126.2z"/></g></svg>